<svg id="Layer_1" data-name="Layer 1" xmlns="http://www.w3.org/2000/svg" viewBox="0 0 140 140"><defs><style>.cls-1{fill:#f3f2f2;}.cls-2{fill:#c2c2c2;}.cls-3{fill:#2a3052;}.cls-4{fill:#e98024;}</style></defs><title>competitive_spread</title><rect class="cls-1" x="1" y="1" width="138" height="138"/><path class="cls-2" d="M138,2V138H2V2H138m2-2H0V140H140V0Z"/><polygon class="cls-3" points="51.98 106.69 39.52 94 23 94 23 90 41.23 90 51.95 100.9 106.42 46.36 109.37 49.17 51.98 106.69"/><polygon class="cls-4" points="50.59 82.98 35.05 67.6 23.74 78.92 20.82 76.04 35.1 62.07 50.64 77.64 92.52 36 102.47 36 112.28 26.44 115.22 28.68 104.2 39 94.23 39 50.59 82.98"/><rect class="cls-3" x="20" y="20" width="6.25" height="100"/><rect class="cls-3" x="66.87" y="66.88" width="6.25" height="100" transform="translate(186.87 46.87) rotate(90)"/></svg>