<svg id="Layer_1" data-name="Layer 1" xmlns="http://www.w3.org/2000/svg" viewBox="0 0 140 140"><defs><style>.cls-1{fill:#f3f2f2;}.cls-2{fill:#c2c2c2;}.cls-3{fill:#293052;}.cls-4,.cls-5{fill:none;stroke-miterlimit:10;stroke-width:1.91px;}.cls-4{stroke:#293052;}.cls-5{stroke:#e98024;}</style></defs><title>expert_advisors</title><rect class="cls-1" x="1" y="1" width="138" height="138"/><path class="cls-2" d="M138,2V138H2V2H138m2-2H0V140H140V0Z"/><path class="cls-3" d="M55.33,70.4a19.65,19.65,0,0,0,2.46-2.68,21.23,21.23,0,0,0,1.38-2,22.47,22.47,0,0,0,1.4-2.79c.08-.2.18-.4.26-.6a5.45,5.45,0,0,0,2.3-2A5.43,5.43,0,0,0,64,56.36,5.58,5.58,0,0,0,62.4,53.3a22.76,22.76,0,0,0-.2-2.46,22.89,22.89,0,0,0-1.46-5.6,20.64,20.64,0,0,0-.9-1.92c-3.09-5.83-8.66-9.75-15-9.75s-11.93,3.91-15,9.74c-.32.6-.62,1.22-.88,1.86a21.91,21.91,0,0,0-1.07,3.38,22.81,22.81,0,0,0-.6,4.49l-.07.07a5.65,5.65,0,0,0-1.82,4.83,5.65,5.65,0,0,0,.34,1.32,5.43,5.43,0,0,0,3.18,3.17,22.2,22.2,0,0,0,1.67,3.35,20.72,20.72,0,0,0,1.38,2,19.58,19.58,0,0,0,2.46,2.66A18.08,18.08,0,0,0,36,71.7a14.78,14.78,0,0,0,17.8-.05A18,18,0,0,0,55.33,70.4ZM32.09,47.84a17.46,17.46,0,0,1,.83-2.05c2.35-5,6.8-8.31,11.9-8.31s9.53,3.35,11.88,8.32a17.94,17.94,0,0,1,.84,2.14,18.55,18.55,0,0,1,.51,1.86,9.74,9.74,0,0,1-1.59-.53,11.29,11.29,0,0,1-1.86-1,16.19,16.19,0,0,1-4.89-5.34l-1.84-3.62L46.2,43c-2,4.42-6.28,6.29-10,7.07-.74.15-1.46.27-2.14.35-1,.12-1.93.17-2.66.18A18.42,18.42,0,0,1,32.09,47.84ZM51.34,68.59a11,11,0,0,1-13.13-.06,14.22,14.22,0,0,1-1.54-1.26,16.17,16.17,0,0,1-2.21-2.59,18.39,18.39,0,0,1-2.16-4.24l-.11-.28L31.8,59l-1.23-.14a1.55,1.55,0,0,1-1.33-1.38,1.63,1.63,0,0,1,.85-1.65h0l1.08-.55,0-.72,1.15,0a29.48,29.48,0,0,0,3.51-.35c.65-.11,1.33-.24,2-.41a17.64,17.64,0,0,0,10.24-6.27,18.8,18.8,0,0,0,4.59,4.22,15.17,15.17,0,0,0,1.84,1,13.69,13.69,0,0,0,3.25,1l.75.12s0,0,0,.06l0,1.37.93.59a1.65,1.65,0,0,1,.73,1.6v0a1.56,1.56,0,0,1-1.2,1.32l-1.1.22-.36,1.06c-.13.39-.27.77-.43,1.14a18.22,18.22,0,0,1-1.91,3.5,16,16,0,0,1-2.23,2.58A14.13,14.13,0,0,1,51.34,68.59Z"/><path class="cls-3" d="M37.47,78.81a28.19,28.19,0,0,0-5.71,2.52,25.41,25.41,0,0,0-2.13,1.41,24,24,0,0,0-3,2.6q-.77.78-1.46,1.63a23.44,23.44,0,0,0-5.16,15v4.47h3.9v-4.47a19.49,19.49,0,0,1,5.28-13.61,20.25,20.25,0,0,1,1.52-1.45,21.16,21.16,0,0,1,3.09-2.19,22.63,22.63,0,0,1,2.13-1.1,25.35,25.35,0,0,1,4-1.43l1.45-.38V75.45h-3.9Z"/><path class="cls-3" d="M65.25,87q-.69-.85-1.46-1.63a24.2,24.2,0,0,0-3-2.6,25.41,25.41,0,0,0-2.13-1.41,28.2,28.2,0,0,0-5.71-2.52V75.45H49v6.33l1.45.38a25.34,25.34,0,0,1,4,1.43,22.89,22.89,0,0,1,2.13,1.1,21.14,21.14,0,0,1,3.09,2.19,19.71,19.71,0,0,1,1.53,1.45,19.49,19.49,0,0,1,5.28,13.61v4.47h3.9v-4.47A23.44,23.44,0,0,0,65.25,87Z"/><polyline class="cls-3" points="49.46 84.04 45.21 88.28 40.96 84.04"/><polygon class="cls-3" points="49.46 101.17 45.21 105.42 40.96 101.17 45.21 85.13 49.46 101.17"/><rect class="cls-4" x="70.41" y="49.59" width="49.59" height="32.4"/><polyline class="cls-4" points="114.28 77.09 75.66 77.09 75.66 53.24"/><polyline class="cls-5" points="78.69 73.89 87.15 64.78 92.9 68.96 99.64 61.19 103.92 64.47 109.36 57.95"/></svg>