<svg id="Layer_1" data-name="Layer 1" xmlns="http://www.w3.org/2000/svg" viewBox="0 0 626 126.33"><defs><style>.cls-1,.cls-7{fill:none;stroke-miterlimit:10;}.cls-1{stroke:#e5e6ea;stroke-width:2.2px;}.cls-2{fill:#2a3052;}.cls-3{fill:#f2f2f2;}.cls-4{fill:#dedede;}.cls-5{fill:#e98024;}.cls-6{fill:#fff;}.cls-7{stroke:#e98024;}</style></defs><title>mr2_ai</title><line class="cls-1" y1="83.6" x2="626" y2="83.6"/><path class="cls-2" d="M178.23,119.35v4h-1.35v-10h3.81a3.5,3.5,0,0,1,2.47.82,3.1,3.1,0,0,1,0,4.33,3.52,3.52,0,0,1-2.47.81Zm0-1.06h2.46a1.93,1.93,0,1,0,0-3.84h-2.46Z"/><path class="cls-2" d="M189.1,117.14l-.69,0a1.54,1.54,0,0,0-.9.25,1.62,1.62,0,0,0-.56.71v5.28H185.6v-7.4h1.2l.13,1.08a2.56,2.56,0,0,1,.78-.9,1.82,1.82,0,0,1,1.06-.32l.29,0,.23.05Z"/><path class="cls-2" d="M191.85,114.05H190.5v-1.37h1.35Zm0,9.29H190.5v-7.4h1.35Z"/><path class="cls-2" d="M196.93,122.43a1.81,1.81,0,0,0,1.18-.41,1.26,1.26,0,0,0,.51-1h1.21v0a2.08,2.08,0,0,1-.85,1.7,3.11,3.11,0,0,1-2.06.75,3,3,0,0,1-2.47-1.05,4.06,4.06,0,0,1-.85-2.65v-.29a4,4,0,0,1,.86-2.63,3.37,3.37,0,0,1,4.59-.29,2.38,2.38,0,0,1,.8,1.88v0h-1.22a1.56,1.56,0,0,0-.48-1.15,1.64,1.64,0,0,0-1.21-.48,1.62,1.62,0,0,0-1.51.76,3.58,3.58,0,0,0-.45,1.87v.29a3.63,3.63,0,0,0,.45,1.89A1.63,1.63,0,0,0,196.93,122.43Z"/><path class="cls-2" d="M204.42,123.49a3.12,3.12,0,0,1-2.46-1,3.88,3.88,0,0,1-.91-2.67v-.3a3.8,3.8,0,0,1,.94-2.63,2.9,2.9,0,0,1,2.23-1,2.8,2.8,0,0,1,2.26.9,3.6,3.6,0,0,1,.77,2.41V120h-4.8l0,0a2.91,2.91,0,0,0,.54,1.75,1.72,1.72,0,0,0,1.46.69,3.37,3.37,0,0,0,1.2-.2,2.74,2.74,0,0,0,.89-.54l.53.88a3.11,3.11,0,0,1-1,.65A4.2,4.2,0,0,1,204.42,123.49Zm-.21-6.62a1.46,1.46,0,0,0-1.16.57,2.69,2.69,0,0,0-.59,1.43v0h3.41v-.18a2.05,2.05,0,0,0-.42-1.32A1.51,1.51,0,0,0,204.22,116.87Z"/><path class="cls-2" d="M337.51,113.39l3.17,8.09h0l3.17-8.09h1.72v10h-1.35V119.4l.14-4h0l-3.23,8h-.9l-3.21-8h0l.13,4v3.94h-1.35v-10Z"/><path class="cls-2" d="M352.37,123.34q-.07-.33-.11-.59a4.3,4.3,0,0,1,0-.52,3.15,3.15,0,0,1-1,.89,2.52,2.52,0,0,1-1.3.36,2.42,2.42,0,0,1-1.76-.59,2.18,2.18,0,0,1-.6-1.63,1.91,1.91,0,0,1,.86-1.66,4,4,0,0,1,2.33-.6h1.46v-.73a1.36,1.36,0,0,0-.4-1,1.55,1.55,0,0,0-1.12-.38,1.62,1.62,0,0,0-1.06.33,1,1,0,0,0-.41.8H348v0a1.79,1.79,0,0,1,.76-1.48,3.13,3.13,0,0,1,2.07-.67,3.06,3.06,0,0,1,2,.64,2.27,2.27,0,0,1,.77,1.84v3.56a6.94,6.94,0,0,0,0,.77,3.94,3.94,0,0,0,.15.72Zm-2.24-1a2.4,2.4,0,0,0,1.32-.37,1.78,1.78,0,0,0,.77-.86v-1.2h-1.51a2,2,0,0,0-1.3.41,1.22,1.22,0,0,0-.49,1,1,1,0,0,0,.31.78A1.29,1.29,0,0,0,350.14,122.35Z"/><path class="cls-2" d="M359,117.14l-.69,0a1.54,1.54,0,0,0-.9.25,1.62,1.62,0,0,0-.56.71v5.28h-1.35v-7.4h1.2l.13,1.08a2.56,2.56,0,0,1,.78-.9,1.82,1.82,0,0,1,1.06-.32l.29,0,.23.05Z"/><path class="cls-2" d="M359.9,119.78a4.85,4.85,0,0,1,.78-2.88,2.5,2.5,0,0,1,2.15-1.09,2.6,2.6,0,0,1,1.24.28,2.44,2.44,0,0,1,.89.82l.16-1h1.07v7.44a2.82,2.82,0,0,1-.83,2.18,3.4,3.4,0,0,1-2.39.76,5,5,0,0,1-1.15-.15,4.47,4.47,0,0,1-1.09-.4l.34-1a3.48,3.48,0,0,0,.88.33,4.23,4.23,0,0,0,1,.13,2,2,0,0,0,1.43-.45,1.85,1.85,0,0,0,.45-1.36v-.83a2.36,2.36,0,0,1-.87.7,2.74,2.74,0,0,1-1.16.24,2.58,2.58,0,0,1-2.14-1,4,4,0,0,1-.78-2.58Zm1.35.14a3.08,3.08,0,0,0,.47,1.79,1.63,1.63,0,0,0,1.44.68,1.79,1.79,0,0,0,1-.28,2.11,2.11,0,0,0,.68-.78v-3.4a2.08,2.08,0,0,0-.68-.75,1.77,1.77,0,0,0-1-.28,1.57,1.57,0,0,0-1.44.81,4,4,0,0,0-.48,2.07Z"/><path class="cls-2" d="M369.61,114.05h-1.35v-1.37h1.35Zm0,9.29h-1.35v-7.4h1.35Z"/><path class="cls-2" d="M372.88,115.95l.1,1.1a2.69,2.69,0,0,1,.93-.91,2.48,2.48,0,0,1,1.27-.32,2.41,2.41,0,0,1,1.85.7,3.07,3.07,0,0,1,.66,2.16v4.67h-1.35V118.7a2,2,0,0,0-.39-1.39,1.55,1.55,0,0,0-1.18-.41,1.9,1.9,0,0,0-1,.28,2,2,0,0,0-.71.77v5.39h-1.35v-7.4Z"/><path class="cls-2" d="M386.61,117.14l-.69,0a1.54,1.54,0,0,0-.9.25,1.62,1.62,0,0,0-.56.71v5.28h-1.35v-7.4h1.2l.13,1.08a2.56,2.56,0,0,1,.78-.9,1.82,1.82,0,0,1,1.06-.32l.29,0,.23.05Z"/><path class="cls-2" d="M392.46,123.34q-.07-.33-.11-.59a4.3,4.3,0,0,1,0-.52,3.15,3.15,0,0,1-1,.89,2.52,2.52,0,0,1-1.3.36,2.42,2.42,0,0,1-1.76-.59,2.18,2.18,0,0,1-.6-1.63,1.91,1.91,0,0,1,.86-1.66,4,4,0,0,1,2.33-.6h1.46v-.73a1.36,1.36,0,0,0-.4-1,1.55,1.55,0,0,0-1.12-.38,1.62,1.62,0,0,0-1.06.33,1,1,0,0,0-.41.8H388v0a1.79,1.79,0,0,1,.76-1.48,3.13,3.13,0,0,1,2.07-.67,3.06,3.06,0,0,1,2,.64,2.27,2.27,0,0,1,.77,1.84v3.56a6.94,6.94,0,0,0,0,.77,3.94,3.94,0,0,0,.15.72Zm-2.24-1a2.4,2.4,0,0,0,1.32-.37,1.78,1.78,0,0,0,.77-.86v-1.2H390.8a2,2,0,0,0-1.3.41,1.22,1.22,0,0,0-.49,1,1,1,0,0,0,.31.78A1.29,1.29,0,0,0,390.22,122.35Z"/><path class="cls-2" d="M397.39,114.16v1.78h1.4v1h-1.4v4.49a1,1,0,0,0,.22.73.78.78,0,0,0,.57.21l.26,0,.25-.07.18.92a1.18,1.18,0,0,1-.44.2,2.22,2.22,0,0,1-.58.08,1.75,1.75,0,0,1-1.31-.5,2.15,2.15,0,0,1-.49-1.56v-4.49h-1.18v-1H396v-1.78Z"/><path class="cls-2" d="M403.52,123.49a3.12,3.12,0,0,1-2.46-1,3.88,3.88,0,0,1-.91-2.67v-.3a3.8,3.8,0,0,1,.94-2.63,2.9,2.9,0,0,1,2.23-1,2.8,2.8,0,0,1,2.26.9,3.6,3.6,0,0,1,.77,2.41V120h-4.8l0,0a2.91,2.91,0,0,0,.54,1.75,1.72,1.72,0,0,0,1.46.69,3.37,3.37,0,0,0,1.2-.2,2.74,2.74,0,0,0,.89-.54l.53.88a3.11,3.11,0,0,1-1,.65A4.2,4.2,0,0,1,403.52,123.49Zm-.21-6.62a1.46,1.46,0,0,0-1.16.57,2.69,2.69,0,0,0-.59,1.43v0H405v-.18a2.05,2.05,0,0,0-.42-1.32A1.51,1.51,0,0,0,403.31,116.87Z"/><path class="cls-2" d="M502.61,113.39l3.17,8.09h0l3.17-8.09h1.72v10h-1.35V119.4l.14-4h0l-3.23,8h-.9l-3.21-8h0l.13,4v3.94h-1.35v-10Z"/><path class="cls-2" d="M517.48,123.34q-.07-.33-.11-.59a4.3,4.3,0,0,1,0-.52,3.15,3.15,0,0,1-1,.89,2.52,2.52,0,0,1-1.3.36,2.42,2.42,0,0,1-1.76-.59,2.18,2.18,0,0,1-.6-1.63,1.91,1.91,0,0,1,.86-1.66,4,4,0,0,1,2.33-.6h1.46v-.73a1.36,1.36,0,0,0-.4-1,1.55,1.55,0,0,0-1.12-.38,1.62,1.62,0,0,0-1.06.33,1,1,0,0,0-.41.8h-1.29v0a1.79,1.79,0,0,1,.76-1.48,3.13,3.13,0,0,1,2.07-.67,3.06,3.06,0,0,1,2,.64,2.27,2.27,0,0,1,.77,1.84v3.56a6.94,6.94,0,0,0,0,.77,3.94,3.94,0,0,0,.15.72Zm-2.24-1a2.4,2.4,0,0,0,1.32-.37,1.78,1.78,0,0,0,.77-.86v-1.2h-1.51a2,2,0,0,0-1.3.41,1.22,1.22,0,0,0-.49,1,1,1,0,0,0,.31.78A1.29,1.29,0,0,0,515.25,122.35Z"/><path class="cls-2" d="M524.13,117.14l-.69,0a1.54,1.54,0,0,0-.9.25,1.62,1.62,0,0,0-.56.71v5.28h-1.35v-7.4h1.2L522,117a2.56,2.56,0,0,1,.78-.9,1.82,1.82,0,0,1,1.06-.32l.29,0,.23.05Z"/><path class="cls-2" d="M525,119.78a4.85,4.85,0,0,1,.78-2.88,2.5,2.5,0,0,1,2.15-1.09,2.6,2.6,0,0,1,1.24.28,2.44,2.44,0,0,1,.89.82l.16-1h1.07v7.44a2.82,2.82,0,0,1-.83,2.18,3.4,3.4,0,0,1-2.39.76,5,5,0,0,1-1.15-.15,4.47,4.47,0,0,1-1.09-.4l.34-1a3.48,3.48,0,0,0,.88.33,4.23,4.23,0,0,0,1,.13,2,2,0,0,0,1.43-.45,1.85,1.85,0,0,0,.45-1.36v-.83a2.36,2.36,0,0,1-.87.7,2.74,2.74,0,0,1-1.16.24,2.58,2.58,0,0,1-2.14-1,4,4,0,0,1-.78-2.58Zm1.35.14a3.08,3.08,0,0,0,.47,1.79,1.63,1.63,0,0,0,1.44.68,1.79,1.79,0,0,0,1-.28,2.11,2.11,0,0,0,.68-.78v-3.4a2.08,2.08,0,0,0-.68-.75,1.77,1.77,0,0,0-1-.28,1.57,1.57,0,0,0-1.44.81,4,4,0,0,0-.48,2.07Z"/><path class="cls-2" d="M534.72,114.05h-1.35v-1.37h1.35Zm0,9.29h-1.35v-7.4h1.35Z"/><path class="cls-2" d="M538,115.95l.1,1.1a2.69,2.69,0,0,1,.93-.91,2.48,2.48,0,0,1,1.27-.32,2.41,2.41,0,0,1,1.85.7,3.07,3.07,0,0,1,.66,2.16v4.67h-1.35V118.7a2,2,0,0,0-.39-1.39,1.55,1.55,0,0,0-1.18-.41,1.9,1.9,0,0,0-1,.28,2,2,0,0,0-.71.77v5.39h-1.35v-7.4Z"/><path class="cls-2" d="M54.59,120.87l.23.79h0l.23-.79,2.57-7.48h1.46l-3.7,10H54.25l-3.7-10H52Z"/><path class="cls-2" d="M59.61,119.58a4.07,4.07,0,0,1,.89-2.7,3.29,3.29,0,0,1,4.84,0,4.06,4.06,0,0,1,.89,2.71v.15a4.05,4.05,0,0,1-.89,2.71,3.31,3.31,0,0,1-4.84,0,4,4,0,0,1-.89-2.7Zm1.35.15a3.5,3.5,0,0,0,.5,1.94,1.79,1.79,0,0,0,2.94,0,3.48,3.48,0,0,0,.5-1.94v-.15a3.47,3.47,0,0,0-.5-1.93,1.65,1.65,0,0,0-1.47-.77,1.62,1.62,0,0,0-1.46.77,3.51,3.51,0,0,0-.5,1.93Z"/><path class="cls-2" d="M69.33,123.34H68V112.68h1.35Z"/><path class="cls-2" d="M76.1,122.25a2.51,2.51,0,0,1-.9.92,2.44,2.44,0,0,1-1.26.32,2.37,2.37,0,0,1-1.89-.77,3.59,3.59,0,0,1-.68-2.41v-4.36h1.35v4.38a2.75,2.75,0,0,0,.35,1.63,1.29,1.29,0,0,0,1.09.44,2.22,2.22,0,0,0,1.19-.29,1.82,1.82,0,0,0,.71-.82v-5.33H77.4v7.4H76.19Z"/><path class="cls-2" d="M80.56,115.95l.1,1a2.5,2.5,0,0,1,.92-.82,2.76,2.76,0,0,1,1.3-.29,2.28,2.28,0,0,1,1.27.34,2.07,2.07,0,0,1,.8,1,2.74,2.74,0,0,1,.92-1,2.42,2.42,0,0,1,1.34-.37,2.22,2.22,0,0,1,1.78.78,3.55,3.55,0,0,1,.66,2.33v4.42H88.3v-4.44a2.46,2.46,0,0,0-.38-1.55,1.37,1.37,0,0,0-1.12-.46,1.43,1.43,0,0,0-1.12.48,2.08,2.08,0,0,0-.5,1.21v4.75H83.83v-4.44a2.42,2.42,0,0,0-.39-1.52,1.34,1.34,0,0,0-1.11-.48,1.85,1.85,0,0,0-1,.25,1.63,1.63,0,0,0-.61.71v5.48H79.36v-7.4Z"/><path class="cls-2" d="M94.67,123.49a3.12,3.12,0,0,1-2.46-1,3.88,3.88,0,0,1-.91-2.67v-.3a3.8,3.8,0,0,1,.94-2.63,2.9,2.9,0,0,1,2.23-1,2.8,2.8,0,0,1,2.26.9,3.6,3.6,0,0,1,.77,2.41V120h-4.8l0,0a2.91,2.91,0,0,0,.54,1.75,1.72,1.72,0,0,0,1.46.69,3.37,3.37,0,0,0,1.2-.2,2.74,2.74,0,0,0,.89-.54l.53.88a3.11,3.11,0,0,1-1,.65A4.2,4.2,0,0,1,94.67,123.49Zm-.21-6.62a1.46,1.46,0,0,0-1.16.57,2.69,2.69,0,0,0-.59,1.43v0h3.41v-.18a2.05,2.05,0,0,0-.42-1.32A1.51,1.51,0,0,0,94.46,116.87Z"/><rect class="cls-3" x="487.48" y="67.67" width="7" height="14"/><path class="cls-4" d="M493.48,68.67v12h-5v-12h5m2-2h-9v16h9v-16Z"/><rect class="cls-3" x="549.46" y="67.67" width="7" height="14"/><path class="cls-4" d="M555.46,68.67v12h-5v-12h5m2-2h-9v16h9v-16Z"/><rect class="cls-3" x="330.53" y="1" width="79.65" height="66.89"/><path class="cls-4" d="M409.19,2V66.89H331.53V2h77.65m2-2H329.53V68.89h81.65V0Z"/><rect class="cls-3" x="340.86" y="67.67" width="7" height="14"/><path class="cls-4" d="M346.86,68.67v12h-5v-12h5m2-2h-9v16h9v-16Z"/><rect class="cls-3" x="392.86" y="67.67" width="7" height="14"/><path class="cls-4" d="M398.86,68.67v12h-5v-12h5m2-2h-9v16h9v-16Z"/><rect class="cls-5" x="429.86" y="38.75" width="17.97" height="4.18"/><rect class="cls-5" x="429.86" y="30.75" width="17.97" height="4.18"/><rect class="cls-3" x="48.63" y="1.1" width="220.8" height="66.69"/><path class="cls-4" d="M268.33,2.2V66.69H49.73V2.2h218.6m2.2-2.2h-223V68.89h223V0Z"/><path class="cls-2" d="M358.06,43.39h-2.31V28.57l-3.49,0V27l5.8-.63Z"/><path class="cls-2" d="M375.78,36.88a7.64,7.64,0,0,1-1.45,5,5.41,5.41,0,0,1-8,0,7.58,7.58,0,0,1-1.46-5v-4a7.63,7.63,0,0,1,1.46-5,5.38,5.38,0,0,1,7.95,0,7.63,7.63,0,0,1,1.46,5Zm-2.31-4.54a5.71,5.71,0,0,0-.8-3.33A3,3,0,0,0,368,29a5.74,5.74,0,0,0-.8,3.33v5a5.73,5.73,0,0,0,.81,3.34,2.69,2.69,0,0,0,2.33,1.13,2.65,2.65,0,0,0,2.31-1.12,5.82,5.82,0,0,0,.79-3.35Z"/><path class="cls-2" d="M389.3,36.88a7.64,7.64,0,0,1-1.45,5,5.41,5.41,0,0,1-8,0,7.58,7.58,0,0,1-1.46-5v-4a7.63,7.63,0,0,1,1.46-5,5.38,5.38,0,0,1,7.95,0,7.63,7.63,0,0,1,1.46,5ZM387,32.34a5.71,5.71,0,0,0-.8-3.33,3,3,0,0,0-4.65,0,5.74,5.74,0,0,0-.8,3.33v5a5.73,5.73,0,0,0,.81,3.34,2.69,2.69,0,0,0,2.33,1.13,2.65,2.65,0,0,0,2.31-1.12,5.82,5.82,0,0,0,.79-3.35Z"/><rect class="cls-2" x="465.47" width="113" height="68.89"/><path class="cls-6" d="M490.93,26.32V37.89a5.19,5.19,0,0,1-1.81,4.27,7.25,7.25,0,0,1-4.73,1.48,6.82,6.82,0,0,1-4.56-1.48,5.27,5.27,0,0,1-1.75-4.26V26.32h2.31V37.88a3.76,3.76,0,0,0,1.1,2.93,4.15,4.15,0,0,0,2.91,1,4.54,4.54,0,0,0,3.06-1,3.65,3.65,0,0,0,1.17-2.93V26.32Z"/><path class="cls-6" d="M504,39.09a2.51,2.51,0,0,0-.88-2A7.42,7.42,0,0,0,500,35.82a10.32,10.32,0,0,1-4.22-1.9,3.93,3.93,0,0,1-1.52-3.16,4.15,4.15,0,0,1,1.63-3.34,6.47,6.47,0,0,1,4.24-1.34,6.3,6.3,0,0,1,4.46,1.54,4.53,4.53,0,0,1,1.6,3.56l0,.07H504a3.17,3.17,0,0,0-1-2.43,4.85,4.85,0,0,0-5.48-.15,2.54,2.54,0,0,0-.92,2,2.24,2.24,0,0,0,1,1.86,9.45,9.45,0,0,0,3.23,1.31,9.23,9.23,0,0,1,4.1,2,4.21,4.21,0,0,1,1.41,3.22,3.93,3.93,0,0,1-1.69,3.32,7.2,7.2,0,0,1-4.41,1.25,7.63,7.63,0,0,1-4.52-1.39,4.19,4.19,0,0,1-1.9-3.71l0-.07H496a2.87,2.87,0,0,0,1.21,2.5,5,5,0,0,0,3,.86,4.65,4.65,0,0,0,2.77-.73A2.33,2.33,0,0,0,504,39.09Z"/><path class="cls-6" d="M517.49,39a2.45,2.45,0,0,0-.75-1.79,6.46,6.46,0,0,0-2.46-1.34,8.5,8.5,0,0,1-3.57-1.91,4.28,4.28,0,0,1-1.21-3.19,4.51,4.51,0,0,1,1.11-3.15,4.77,4.77,0,0,1,3.05-1.46V23.55h1.85v2.6a4.49,4.49,0,0,1,3.05,1.68,6,6,0,0,1,1.08,3.76h-2.3a4.19,4.19,0,0,0-.74-2.58,2.42,2.42,0,0,0-2.05-1,2.46,2.46,0,0,0-2.75,2.7,2.48,2.48,0,0,0,.71,1.84,6.93,6.93,0,0,0,2.56,1.34,8.86,8.86,0,0,1,3.56,1.93A4.22,4.22,0,0,1,519.8,39a4.3,4.3,0,0,1-1.21,3.21,5.36,5.36,0,0,1-3.32,1.41v2.25h-1.84V43.59a5.37,5.37,0,0,1-3.3-1.47,4.81,4.81,0,0,1-1.24-3.7l0-.06h2.23a3.2,3.2,0,0,0,.91,2.57,3.34,3.34,0,0,0,2.23.77,3.54,3.54,0,0,0,2.36-.72A2.48,2.48,0,0,0,517.49,39Z"/><path class="cls-6" d="M539.48,43.39H528.41V41.79l5.59-6.2a15.68,15.68,0,0,0,2-2.66,4.18,4.18,0,0,0,.53-2,3.2,3.2,0,0,0-.74-2.15,2.47,2.47,0,0,0-2-.87,3.39,3.39,0,0,0-2.61.91,3.62,3.62,0,0,0-.84,2.55h-2.21l0-.07a4.8,4.8,0,0,1,1.46-3.7,5.75,5.75,0,0,1,4.22-1.5,5,5,0,0,1,3.66,1.34,4.59,4.59,0,0,1,1.37,3.42,5.46,5.46,0,0,1-.83,2.79,18,18,0,0,1-2.31,3l-4.49,4.88,0,.06h8.2Z"/><path class="cls-6" d="M552.73,36.88a7.64,7.64,0,0,1-1.45,5,5.41,5.41,0,0,1-8,0,7.58,7.58,0,0,1-1.46-5v-4a7.63,7.63,0,0,1,1.46-5,5.38,5.38,0,0,1,7.95,0,7.63,7.63,0,0,1,1.46,5Zm-2.31-4.54a5.71,5.71,0,0,0-.8-3.33A3,3,0,0,0,545,29a5.74,5.74,0,0,0-.8,3.33v5a5.73,5.73,0,0,0,.81,3.34,2.69,2.69,0,0,0,2.33,1.13,2.65,2.65,0,0,0,2.31-1.12,5.82,5.82,0,0,0,.79-3.35Z"/><path class="cls-6" d="M566.25,36.88a7.64,7.64,0,0,1-1.45,5,5.41,5.41,0,0,1-8,0,7.58,7.58,0,0,1-1.46-5v-4a7.63,7.63,0,0,1,1.46-5,5.38,5.38,0,0,1,7.95,0,7.63,7.63,0,0,1,1.46,5Zm-2.31-4.54a5.71,5.71,0,0,0-.8-3.33,3,3,0,0,0-4.65,0,5.74,5.74,0,0,0-.8,3.33v5a5.73,5.73,0,0,0,.81,3.34,2.69,2.69,0,0,0,2.33,1.13,2.65,2.65,0,0,0,2.31-1.12,5.82,5.82,0,0,0,.79-3.35Z"/><rect class="cls-5" x="291.73" y="34.65" width="17.97" height="4.18"/><circle class="cls-5" cx="300.71" cy="42.96" r="2.5"/><circle class="cls-5" cx="300.71" cy="30.25" r="2.5"/><path class="cls-2" d="M141.21,26.32V37.89a5.19,5.19,0,0,1-1.81,4.27,7.25,7.25,0,0,1-4.73,1.48,6.82,6.82,0,0,1-4.56-1.48,5.27,5.27,0,0,1-1.75-4.26V26.32h2.31V37.88a3.76,3.76,0,0,0,1.1,2.93,4.15,4.15,0,0,0,2.91,1,4.54,4.54,0,0,0,3.06-1,3.65,3.65,0,0,0,1.17-2.93V26.32Z"/><path class="cls-2" d="M154.28,39.09a2.51,2.51,0,0,0-.88-2,7.42,7.42,0,0,0-3.12-1.32,10.32,10.32,0,0,1-4.22-1.9,3.93,3.93,0,0,1-1.52-3.16,4.15,4.15,0,0,1,1.63-3.34,6.47,6.47,0,0,1,4.24-1.34,6.3,6.3,0,0,1,4.46,1.54,4.53,4.53,0,0,1,1.6,3.56l0,.07h-2.2a3.17,3.17,0,0,0-1-2.43,4.85,4.85,0,0,0-5.48-.15,2.54,2.54,0,0,0-.92,2,2.24,2.24,0,0,0,1,1.86,9.45,9.45,0,0,0,3.23,1.31,9.23,9.23,0,0,1,4.1,2,4.21,4.21,0,0,1,1.41,3.22,3.93,3.93,0,0,1-1.69,3.32,7.2,7.2,0,0,1-4.41,1.25A7.63,7.63,0,0,1,146,42.24a4.19,4.19,0,0,1-1.9-3.71l0-.07h2.2A2.87,2.87,0,0,0,147.5,41a5,5,0,0,0,3,.86,4.65,4.65,0,0,0,2.77-.73A2.33,2.33,0,0,0,154.28,39.09Z"/><path class="cls-2" d="M167.78,39a2.45,2.45,0,0,0-.75-1.79,6.46,6.46,0,0,0-2.46-1.34A8.5,8.5,0,0,1,161,33.94a4.28,4.28,0,0,1-1.21-3.19,4.51,4.51,0,0,1,1.11-3.15,4.77,4.77,0,0,1,3.05-1.46V23.55h1.85v2.6a4.49,4.49,0,0,1,3.05,1.68,6,6,0,0,1,1.08,3.76h-2.3A4.19,4.19,0,0,0,166.9,29a2.42,2.42,0,0,0-2.05-1,2.46,2.46,0,0,0-2.75,2.7,2.48,2.48,0,0,0,.71,1.84,6.93,6.93,0,0,0,2.56,1.34,8.86,8.86,0,0,1,3.56,1.93A4.22,4.22,0,0,1,170.09,39a4.3,4.3,0,0,1-1.21,3.21,5.36,5.36,0,0,1-3.32,1.41v2.25h-1.84V43.59a5.37,5.37,0,0,1-3.3-1.47,4.81,4.81,0,0,1-1.24-3.7l0-.06h2.23a3.2,3.2,0,0,0,.91,2.57,3.34,3.34,0,0,0,2.23.77,3.54,3.54,0,0,0,2.36-.72A2.48,2.48,0,0,0,167.78,39Z"/><path class="cls-2" d="M189.76,43.39H178.7V41.79l5.59-6.2a15.68,15.68,0,0,0,2-2.66,4.18,4.18,0,0,0,.53-2,3.2,3.2,0,0,0-.74-2.15,2.47,2.47,0,0,0-2-.87,3.39,3.39,0,0,0-2.61.91,3.62,3.62,0,0,0-.84,2.55h-2.21l0-.07a4.8,4.8,0,0,1,1.46-3.7,5.75,5.75,0,0,1,4.22-1.5,5,5,0,0,1,3.66,1.34,4.59,4.59,0,0,1,1.37,3.42,5.46,5.46,0,0,1-.83,2.79,18,18,0,0,1-2.31,3l-4.49,4.88,0,.06h8.2Z"/><path class="cls-2" d="M203,36.88a7.64,7.64,0,0,1-1.45,5,5.41,5.41,0,0,1-8,0,7.58,7.58,0,0,1-1.46-5v-4a7.63,7.63,0,0,1,1.46-5,5.38,5.38,0,0,1,7.95,0,7.63,7.63,0,0,1,1.46,5Zm-2.31-4.54a5.71,5.71,0,0,0-.8-3.33,3,3,0,0,0-4.65,0,5.74,5.74,0,0,0-.8,3.33v5a5.73,5.73,0,0,0,.81,3.34,2.69,2.69,0,0,0,2.33,1.13,2.65,2.65,0,0,0,2.31-1.12,5.82,5.82,0,0,0,.79-3.35Z"/><path class="cls-2" d="M208,42.82l-1.76,3.59h-1.37l.82-3.7V40.8H208Z"/><path class="cls-2" d="M221.27,36.88a7.64,7.64,0,0,1-1.45,5,5.41,5.41,0,0,1-8,0,7.58,7.58,0,0,1-1.46-5v-4a7.63,7.63,0,0,1,1.46-5,5.38,5.38,0,0,1,7.95,0,7.63,7.63,0,0,1,1.46,5ZM219,32.34a5.71,5.71,0,0,0-.8-3.33,3,3,0,0,0-4.65,0,5.74,5.74,0,0,0-.8,3.33v5a5.73,5.73,0,0,0,.81,3.34,2.69,2.69,0,0,0,2.33,1.13,2.65,2.65,0,0,0,2.31-1.12,5.82,5.82,0,0,0,.79-3.35Z"/><path class="cls-2" d="M234.8,36.88a7.64,7.64,0,0,1-1.45,5,5.41,5.41,0,0,1-8,0,7.58,7.58,0,0,1-1.46-5v-4a7.63,7.63,0,0,1,1.46-5,5.38,5.38,0,0,1,7.95,0,7.63,7.63,0,0,1,1.46,5Zm-2.31-4.54a5.71,5.71,0,0,0-.8-3.33A3,3,0,0,0,227,29a5.74,5.74,0,0,0-.8,3.33v5a5.73,5.73,0,0,0,.81,3.34,2.69,2.69,0,0,0,2.33,1.13,2.65,2.65,0,0,0,2.31-1.12,5.82,5.82,0,0,0,.79-3.35Z"/><path class="cls-2" d="M248.32,36.88a7.64,7.64,0,0,1-1.45,5,5.41,5.41,0,0,1-8,0,7.58,7.58,0,0,1-1.46-5v-4a7.63,7.63,0,0,1,1.46-5,5.38,5.38,0,0,1,7.95,0,7.63,7.63,0,0,1,1.46,5ZM246,32.34a5.71,5.71,0,0,0-.8-3.33,3,3,0,0,0-4.65,0,5.74,5.74,0,0,0-.8,3.33v5a5.73,5.73,0,0,0,.81,3.34,2.69,2.69,0,0,0,2.33,1.13,2.65,2.65,0,0,0,2.31-1.12,5.82,5.82,0,0,0,.79-3.35Z"/><path class="cls-2" d="M75.37,43.39H73.06V28.57l-3.49,0V27l5.8-.63Z"/><polygon class="cls-5" points="110.34 31.5 107.39 28.54 102.51 33.42 97.63 28.54 94.68 31.5 99.55 36.37 94.68 41.25 97.63 44.21 102.51 39.33 107.39 44.21 110.34 41.25 105.47 36.37 110.34 31.5"/><rect class="cls-3" x="79.53" y="67.67" width="7" height="14"/><path class="cls-4" d="M85.53,68.67v12h-5v-12h5m2-2h-9v16h9v-16Z"/><rect class="cls-3" x="231.53" y="67.67" width="7" height="14"/><path class="cls-4" d="M237.53,68.67v12h-5v-12h5m2-2h-9v16h9v-16Z"/><line class="cls-7" x1="74.21" y1="56.17" x2="74.21" y2="106.67"/><circle class="cls-5" cx="74.21" cy="56.17" r="2.04"/><line class="cls-7" x1="191.71" y1="56.17" x2="191.71" y2="106.67"/><circle class="cls-5" cx="191.71" cy="56.17" r="2.04"/><line class="cls-7" x1="370.71" y1="56.17" x2="370.71" y2="106.67"/><circle class="cls-5" cx="370.71" cy="56.17" r="2.04"/><line class="cls-7" x1="521.71" y1="56.17" x2="521.71" y2="107.67"/><circle class="cls-5" cx="521.71" cy="56.17" r="2.04"/></svg>