<svg id="Layer_1" data-name="Layer 1" xmlns="http://www.w3.org/2000/svg" viewBox="0 0 140 140"><defs><style>.cls-1{fill:#f3f2f2;}.cls-2{fill:#c2c2c2;}.cls-3{fill:#2a3052;}</style></defs><title>24hr</title><rect class="cls-1" x="1" y="1" width="138" height="138"/><path class="cls-2" d="M138,2V138H2V2H138m2-2H0V140H140V0Z"/><path class="cls-3" d="M105.39,43.18l-4.56,3.9a40.58,40.58,0,1,1-36.25-13.8v6.48l9.88-9.88L64.58,20v7.22a46.52,46.52,0,1,0,40.81,16Z"/><path class="cls-3" d="M56.85,72.12,46.26,83.86v3H67.21V83.43H51.68l0-.11,8.5-9.23a34,34,0,0,0,4.38-5.69,10.34,10.34,0,0,0,1.56-5.29,8.68,8.68,0,0,0-2.58-6.47,9.46,9.46,0,0,0-6.93-2.54q-5.1,0-8,2.84a9.09,9.09,0,0,0-2.77,7l0,.13H50a6.85,6.85,0,0,1,1.59-4.83q1.59-1.72,4.94-1.72A4.67,4.67,0,0,1,60.3,59.2a6.06,6.06,0,0,1,1.41,4.07,7.92,7.92,0,0,1-1,3.82A29.68,29.68,0,0,1,56.85,72.12Z"/><path class="cls-3" d="M70.45,79.44H85v7.43H89.3V79.44h4.46V76H89.3V54.57H84.69L70.45,77Zm14-17.5.42-1.11.13,0V76H75.11Z"/></svg>