<svg id="Layer_1" data-name="Layer 1" xmlns="http://www.w3.org/2000/svg" viewBox="0 0 140 140"><defs><style>.cls-1{fill:#f3f2f2;}.cls-2{fill:#c2c2c2;}.cls-3{fill:#2a3052;}.cls-4{fill:none;stroke:#2a3052;stroke-miterlimit:10;stroke-width:3.64px;}</style></defs><title>leading_forex</title><rect class="cls-1" x="1" y="1" width="138" height="138"/><path class="cls-2" d="M138,2V138H2V2H138m2-2H0V140H140V0Z"/><g id="_31" data-name="31"><path class="cls-3" d="M44.58,69.36l-8.65-.07v-.06a5.63,5.63,0,0,0,1.61-2.29,6.87,6.87,0,0,0,.31-2.29l4,0,0-3.37-4.44,0a9.8,9.8,0,0,1-.3-2.39,2.73,2.73,0,0,1,3-3,5.71,5.71,0,0,1,2.74.6l.81-3.72A8.31,8.31,0,0,0,40,51.92c-4.37,0-7.34,2.63-7.38,6.67a13.93,13.93,0,0,0,.24,2.63l-2.59,0,0,3.37,3.18,0a9.43,9.43,0,0,1,.05,1.29c0,2.2-1.91,4-3.64,4.73l0,2.63,14.77.12Z"/><path class="cls-3" d="M104.26,52.19a9.85,9.85,0,0,0-6.25,2,9.15,9.15,0,0,0-3.23,5.21h-1.3L93,61.9H94.4c0,.25,0,.51,0,.77s0,.42,0,.63h0c0,.15,0,.32,0,.47h-1L93,66.31h1.87a8.81,8.81,0,0,0,3.22,5,10.08,10.08,0,0,0,6.19,1.84,15.09,15.09,0,0,0,6-1.26v-4.5h-.52a7.65,7.65,0,0,1-4.62,2,7.14,7.14,0,0,1-.79,0l-.24,0-.48-.09-.27-.09-.4-.13-.26-.13a2.73,2.73,0,0,1-.34-.18l-.25-.17-.3-.23-.23-.21-.27-.28-.21-.25-.24-.33-.18-.29c-.1-.18-.21-.37-.3-.57h5.44l.42-2.13.08-.41h-6.6c0-.26,0-.53,0-.81,0-.09,0-.18,0-.27,0-.26,0-.52,0-.79h7l.5-2.54h-7a6.66,6.66,0,0,1,.32-.71,5.91,5.91,0,0,1,.34-.57l0-.07a5.38,5.38,0,0,1,.39-.49l.05-.05a4.43,4.43,0,0,1,.45-.43h0a5.51,5.51,0,0,1,.5-.35l0,0a4.24,4.24,0,0,1,.54-.27l.09,0a5.12,5.12,0,0,1,.57-.18l.11,0a5.61,5.61,0,0,1,.62-.11h.09a6.55,6.55,0,0,1,.71,0l.5,0,.17,0,.34.06.21.05.31.08.22.08a10,10,0,0,1,2.88,1.67h.52V53.46A15,15,0,0,0,104.26,52.19Z"/><path class="cls-3" d="M72.64,30.94c-2.75-1-3.88-1.7-3.88-2.73s.67-1.82,2.76-1.82a10.06,10.06,0,0,1,4.63,1.12l1-3.63a11.62,11.62,0,0,0-4.69-1.05V20H69.27v3c-3.43.64-5.41,2.85-5.41,5.71,0,3.12,2.33,4.72,5.77,5.88,2.41.8,3.44,1.57,3.44,2.79s-1.25,2-3.12,2A11.37,11.37,0,0,1,64.61,38l-1,3.75a13.42,13.42,0,0,0,5.46,1.38v3h3.17V42.88C76,42.27,78,39.83,78,37S76.46,32.29,72.64,30.94Z"/><g id="layer1"><g id="g4305"><g id="g4345"><g id="text2994"><g id="text3780"><path id="path3785" class="cls-3" d="M69,106.8v-4.1H62.77V99.95H69V96H62.77V93.25H68q-2.09-3.41-4-6.76T60.53,80h4q1.39,3,3,6t3.37,5.81Q72.61,89,74.18,86t3-6h3.91q-1.7,3.21-3.58,6.56t-4,6.72h5.3V96H72.57v3.95h6.27v2.75H72.57v4.1Z"/></g></g></g></g></g><path class="cls-4" d="M37.55,49.62A35.33,35.33,0,0,1,56.3,30.87"/><path class="cls-4" d="M56.31,95.76A35.33,35.33,0,0,1,37.38,76.57"/><path class="cls-4" d="M102.45,77A35.33,35.33,0,0,1,83.26,95.94"/><path class="cls-4" d="M83.69,30.87a35.33,35.33,0,0,1,18.94,19.19"/><line class="cls-4" x1="70.81" y1="110.83" x2="70.81" y2="120"/><line class="cls-4" x1="52.36" y1="120" x2="89.26" y2="120"/></g></svg>