<svg id="Layer_1" data-name="Layer 1" xmlns="http://www.w3.org/2000/svg" viewBox="0 0 140 140"><defs><style>.cls-1{fill:#f3f2f2;}.cls-2{fill:#c2c2c2;}.cls-3{fill:#2a3052;}</style></defs><title>tools</title><rect class="cls-1" x="1" y="1" width="138" height="138"/><path class="cls-2" d="M138,2V138H2V2H138m2-2H0V140H140V0Z"/><path class="cls-3" d="M65.08,106.07H47V98.68A1.8,1.8,0,0,0,45.93,97l-1.81-.75a1.8,1.8,0,0,0-2,.39l-5.22,5.22L24.19,89.13l5.22-5.22a1.79,1.79,0,0,0,.39-2l-.75-1.81A1.79,1.79,0,0,0,27.39,79H20V61h7.39a1.8,1.8,0,0,0,1.67-1.12l.75-1.81a1.8,1.8,0,0,0-.39-2l-5.22-5.22L36.94,38.12l5.22,5.22a1.8,1.8,0,0,0,2,.39L45.93,43A1.8,1.8,0,0,0,47,41.32V33.93h18v7.39A1.79,1.79,0,0,0,66.2,43l1.81.75a1.79,1.79,0,0,0,2-.39l5.22-5.22L87.94,50.87l-5.22,5.22a1.8,1.8,0,0,0-.39,2l.75,1.81A1.8,1.8,0,0,0,84.74,61h7.39V79H84.74a1.79,1.79,0,0,0-1.67,1.11l-.75,1.81a1.79,1.79,0,0,0,.39,2l5.22,5.22L75.19,101.88,70,96.66a1.79,1.79,0,0,0-2-.39L66.2,97a1.79,1.79,0,0,0-1.11,1.67Zm-14.43-3.61H61.48V98.68a5.39,5.39,0,0,1,3.35-5l1.81-.75a5.39,5.39,0,0,1,5.89,1.18l2.67,2.67,7.65-7.65-2.67-2.67A5.39,5.39,0,0,1,79,80.57l.75-1.81a5.39,5.39,0,0,1,5-3.35h3.78V64.59H84.74a5.39,5.39,0,0,1-5-3.35L79,59.43a5.4,5.4,0,0,1,1.18-5.89l2.67-2.67-7.65-7.65-2.67,2.67a5.39,5.39,0,0,1-5.89,1.17l-1.81-.74a5.39,5.39,0,0,1-3.35-5V37.54H50.66v3.78a5.39,5.39,0,0,1-3.35,5l-1.81.75a5.4,5.4,0,0,1-5.89-1.18l-2.67-2.67-7.65,7.65L32,53.54a5.39,5.39,0,0,1,1.17,5.89l-.74,1.81a5.39,5.39,0,0,1-5,3.35H23.61V75.41h3.78a5.39,5.39,0,0,1,5,3.35l.75,1.81A5.39,5.39,0,0,1,32,86.46l-2.67,2.67,7.65,7.65,2.67-2.67a5.39,5.39,0,0,1,5.89-1.18l1.81.75a5.39,5.39,0,0,1,3.35,5ZM56.07,88a18.06,18.06,0,1,1,15.65-9.1l-1.17,2-7.1-7.1.43-1.1A8.26,8.26,0,0,0,61.94,64a8.39,8.39,0,0,0-6.81-2.39l5.8,5.8-7.21,7.21-6-5.89a8.38,8.38,0,0,0,2.45,6.91A8.25,8.25,0,0,0,59,77.53l1.1-.43,7.19,7.2-2,1.19A18,18,0,0,1,56.07,88Zm0-32.46A14.43,14.43,0,1,0,61.3,83.43l-2.16-2.16A12,12,0,0,1,45.23,64.53l1.11-2.21,7.36,7.19,2.14-2.14L48.57,60.1,50.92,59a12.12,12.12,0,0,1,13.57,2.39A11.91,11.91,0,0,1,67.62,73l2,2A14.41,14.41,0,0,0,56.07,55.57Z"/><path class="cls-3" d="M103.13,69.51H109V67.24a1.47,1.47,0,0,1,.91-1.36l.74-.3a1.47,1.47,0,0,1,1.6.32l1.6,1.6L118,63.35l-1.6-1.6a1.47,1.47,0,0,1-.32-1.6l.3-.74a1.47,1.47,0,0,1,1.36-.91H120V52.64h-2.27a1.47,1.47,0,0,1-1.36-.91l-.3-.74a1.47,1.47,0,0,1,.32-1.6l1.6-1.6-4.15-4.15-1.6,1.6a1.47,1.47,0,0,1-1.6.32l-.74-.3a1.47,1.47,0,0,1-.91-1.36V41.64h-5.87v2.27a1.47,1.47,0,0,1-.91,1.36l-.74.3a1.47,1.47,0,0,1-1.6-.32l-1.6-1.6-4.15,4.15,1.6,1.6a1.47,1.47,0,0,1,.32,1.6l-.3.74a1.47,1.47,0,0,1-1.36.91H92.13v5.87H94.4a1.47,1.47,0,0,1,1.36.91l.3.74a1.47,1.47,0,0,1-.32,1.6l-1.6,1.6,4.15,4.15,1.6-1.6a1.47,1.47,0,0,1,1.6-.32l.74.3a1.47,1.47,0,0,1,.91,1.36ZM99.47,55.57a6.6,6.6,0,1,1,6.6,6.6A6.6,6.6,0,0,1,99.47,55.57Z"/></svg>